<svg xmlns="http://www.w3.org/2000/svg" xmlns:xlink="http://www.w3.org/1999/xlink" viewBox="0,0,256,256" width="30px" height="30px"><g fill="#9db3ac" fill-rule="nonzero" stroke="none" stroke-width="1" stroke-linecap="butt" stroke-linejoin="miter" stroke-miterlimit="10" stroke-dasharray="" stroke-dashoffset="0" font-family="none" font-weight="none" font-size="none" text-anchor="none" style="mix-blend-mode: normal"><g transform="scale(8.53333,8.53333)"><path d="M15,2c-3.85433,0 -7,3.14567 -7,7v2h-2c-1.105,0 -2,0.895 -2,2v12c0,1.105 0.895,2 2,2h18c1.105,0 2,-0.895 2,-2v-12c0,-1.105 -0.895,-2 -2,-2h-14v-2c0,-2.77367 2.22633,-5 5,-5c2.18434,0 4.02285,1.39467 4.70898,3.33398c0.11306,0.34493 0.40414,0.60152 0.76053,0.67041c0.35639,0.06889 0.72213,-0.06073 0.9556,-0.33867c0.23347,-0.27794 0.29801,-0.66057 0.16863,-0.99972c-0.96187,-2.71868 -3.55609,-4.66602 -6.59375,-4.66602z"></path></g></g></svg>